<mxfile host="app.diagrams.net" agent="Mozilla/5.0 (Windows NT 10.0; Win64; x64) AppleWebKit/537.36 (KHTML, like Gecko) Chrome/134.0.0.0 Safari/537.36" version="26.1.1">
  <diagram name="Page-1" id="1zRJLSlK9O9VwF11buNt">
    <mxGraphModel dx="3269" dy="2473" grid="1" gridSize="10" guides="1" tooltips="1" connect="1" arrows="1" fold="1" page="1" pageScale="1" pageWidth="827" pageHeight="1169" math="0" shadow="0">
      <root>
        <mxCell id="0" />
        <mxCell id="1" parent="0" />
        <mxCell id="L32WXC0NY1erCqeWQL-x-55" style="edgeStyle=orthogonalEdgeStyle;rounded=0;orthogonalLoop=1;jettySize=auto;html=1;entryX=0.5;entryY=0;entryDx=0;entryDy=0;" edge="1" parent="1" source="L32WXC0NY1erCqeWQL-x-1" target="L32WXC0NY1erCqeWQL-x-54">
          <mxGeometry relative="1" as="geometry" />
        </mxCell>
        <mxCell id="L32WXC0NY1erCqeWQL-x-58" style="edgeStyle=orthogonalEdgeStyle;rounded=0;orthogonalLoop=1;jettySize=auto;html=1;entryX=1;entryY=0.5;entryDx=0;entryDy=0;" edge="1" parent="1" source="L32WXC0NY1erCqeWQL-x-1" target="L32WXC0NY1erCqeWQL-x-57">
          <mxGeometry relative="1" as="geometry" />
        </mxCell>
        <mxCell id="L32WXC0NY1erCqeWQL-x-1" value="Agentic Service" style="swimlane;whiteSpace=wrap;html=1;" vertex="1" parent="1">
          <mxGeometry x="90" y="100" width="200" height="200" as="geometry" />
        </mxCell>
        <mxCell id="L32WXC0NY1erCqeWQL-x-61" value="Python" style="text;strokeColor=none;fillColor=none;align=left;verticalAlign=middle;spacingLeft=4;spacingRight=4;overflow=hidden;points=[[0,0.5],[1,0.5]];portConstraint=eastwest;rotatable=0;whiteSpace=wrap;html=1;" vertex="1" parent="L32WXC0NY1erCqeWQL-x-1">
          <mxGeometry x="10" y="30" width="80" height="30" as="geometry" />
        </mxCell>
        <mxCell id="L32WXC0NY1erCqeWQL-x-65" value="Hosted in &lt;a href=&quot;https://render.com/&quot;&gt;https://render.com/&lt;/a&gt;" style="text;html=1;align=left;verticalAlign=middle;whiteSpace=wrap;rounded=0;" vertex="1" parent="L32WXC0NY1erCqeWQL-x-1">
          <mxGeometry x="10" y="60" width="130" height="30" as="geometry" />
        </mxCell>
        <mxCell id="L32WXC0NY1erCqeWQL-x-53" style="edgeStyle=orthogonalEdgeStyle;rounded=0;orthogonalLoop=1;jettySize=auto;html=1;entryX=1;entryY=0.5;entryDx=0;entryDy=0;" edge="1" parent="1" source="L32WXC0NY1erCqeWQL-x-3" target="L32WXC0NY1erCqeWQL-x-1">
          <mxGeometry relative="1" as="geometry" />
        </mxCell>
        <mxCell id="L32WXC0NY1erCqeWQL-x-3" value="API" style="swimlane;whiteSpace=wrap;html=1;" vertex="1" parent="1">
          <mxGeometry x="470" y="100" width="200" height="200" as="geometry" />
        </mxCell>
        <mxCell id="L32WXC0NY1erCqeWQL-x-62" value="Rust" style="text;html=1;align=left;verticalAlign=middle;whiteSpace=wrap;rounded=0;" vertex="1" parent="L32WXC0NY1erCqeWQL-x-3">
          <mxGeometry x="10" y="30" width="60" height="30" as="geometry" />
        </mxCell>
        <mxCell id="L32WXC0NY1erCqeWQL-x-64" value="Hosted in &lt;a href=&quot;https://render.com/&quot;&gt;https://render.com/&lt;/a&gt;" style="text;html=1;align=left;verticalAlign=middle;whiteSpace=wrap;rounded=0;" vertex="1" parent="L32WXC0NY1erCqeWQL-x-3">
          <mxGeometry x="10" y="60" width="130" height="30" as="geometry" />
        </mxCell>
        <mxCell id="L32WXC0NY1erCqeWQL-x-5" value="&lt;h1 style=&quot;margin-top: 0px;&quot;&gt;Agentic Data Browser&lt;/h1&gt;&lt;div&gt;Agentic data browser is a platform for users to perform data analysis in a tech-language agnostic way.&lt;/div&gt;" style="text;html=1;whiteSpace=wrap;overflow=hidden;rounded=0;" vertex="1" parent="1">
          <mxGeometry x="-60" y="-250" width="180" height="160" as="geometry" />
        </mxCell>
        <mxCell id="L32WXC0NY1erCqeWQL-x-50" style="edgeStyle=orthogonalEdgeStyle;rounded=0;orthogonalLoop=1;jettySize=auto;html=1;exitX=0.5;exitY=0.5;exitDx=0;exitDy=0;exitPerimeter=0;entryX=0;entryY=0.5;entryDx=0;entryDy=0;" edge="1" parent="1" source="L32WXC0NY1erCqeWQL-x-7" target="L32WXC0NY1erCqeWQL-x-49">
          <mxGeometry relative="1" as="geometry" />
        </mxCell>
        <mxCell id="L32WXC0NY1erCqeWQL-x-7" value="Actor" style="shape=umlActor;verticalLabelPosition=bottom;verticalAlign=top;html=1;outlineConnect=0;" vertex="1" parent="1">
          <mxGeometry x="230" y="-90" width="30" height="60" as="geometry" />
        </mxCell>
        <mxCell id="L32WXC0NY1erCqeWQL-x-52" style="edgeStyle=orthogonalEdgeStyle;rounded=0;orthogonalLoop=1;jettySize=auto;html=1;" edge="1" parent="1" source="L32WXC0NY1erCqeWQL-x-49" target="L32WXC0NY1erCqeWQL-x-3">
          <mxGeometry relative="1" as="geometry" />
        </mxCell>
        <mxCell id="L32WXC0NY1erCqeWQL-x-49" value="Client" style="swimlane;whiteSpace=wrap;html=1;" vertex="1" parent="1">
          <mxGeometry x="470" y="-160" width="200" height="200" as="geometry" />
        </mxCell>
        <mxCell id="L32WXC0NY1erCqeWQL-x-69" value="Svelte" style="text;strokeColor=none;fillColor=none;align=left;verticalAlign=middle;spacingLeft=4;spacingRight=4;overflow=hidden;points=[[0,0.5],[1,0.5]];portConstraint=eastwest;rotatable=0;whiteSpace=wrap;html=1;" vertex="1" parent="L32WXC0NY1erCqeWQL-x-49">
          <mxGeometry x="10" y="30" width="80" height="30" as="geometry" />
        </mxCell>
        <mxCell id="L32WXC0NY1erCqeWQL-x-70" value="TailwindCSS" style="text;strokeColor=none;fillColor=none;align=left;verticalAlign=middle;spacingLeft=4;spacingRight=4;overflow=hidden;points=[[0,0.5],[1,0.5]];portConstraint=eastwest;rotatable=0;whiteSpace=wrap;html=1;" vertex="1" parent="L32WXC0NY1erCqeWQL-x-49">
          <mxGeometry x="10" y="60" width="80" height="30" as="geometry" />
        </mxCell>
        <mxCell id="L32WXC0NY1erCqeWQL-x-71" value="Typescript" style="text;strokeColor=none;fillColor=none;align=left;verticalAlign=middle;spacingLeft=4;spacingRight=4;overflow=hidden;points=[[0,0.5],[1,0.5]];portConstraint=eastwest;rotatable=0;whiteSpace=wrap;html=1;" vertex="1" parent="L32WXC0NY1erCqeWQL-x-49">
          <mxGeometry x="10" y="90" width="80" height="30" as="geometry" />
        </mxCell>
        <mxCell id="L32WXC0NY1erCqeWQL-x-54" value="AI Model" style="swimlane;whiteSpace=wrap;html=1;" vertex="1" parent="1">
          <mxGeometry x="45" y="410" width="290" height="200" as="geometry" />
        </mxCell>
        <mxCell id="L32WXC0NY1erCqeWQL-x-67" value="Python" style="text;strokeColor=none;fillColor=none;align=left;verticalAlign=middle;spacingLeft=4;spacingRight=4;overflow=hidden;points=[[0,0.5],[1,0.5]];portConstraint=eastwest;rotatable=0;whiteSpace=wrap;html=1;" vertex="1" parent="L32WXC0NY1erCqeWQL-x-54">
          <mxGeometry x="10" y="40" width="80" height="30" as="geometry" />
        </mxCell>
        <mxCell id="L32WXC0NY1erCqeWQL-x-68" value="Hosted in &lt;a href=&quot;https://render.com/&quot;&gt;https://modal.com/docs/examples/vllm_inference&lt;/a&gt;" style="text;html=1;align=left;verticalAlign=middle;whiteSpace=wrap;rounded=0;" vertex="1" parent="L32WXC0NY1erCqeWQL-x-54">
          <mxGeometry x="10" y="70" width="130" height="30" as="geometry" />
        </mxCell>
        <mxCell id="L32WXC0NY1erCqeWQL-x-57" value="Storage" style="swimlane;" vertex="1" parent="1">
          <mxGeometry x="-300" y="100" width="200" height="200" as="geometry" />
        </mxCell>
        <mxCell id="L32WXC0NY1erCqeWQL-x-59" value="CSV" style="text;strokeColor=none;fillColor=none;align=left;verticalAlign=middle;spacingLeft=4;spacingRight=4;overflow=hidden;points=[[0,0.5],[1,0.5]];portConstraint=eastwest;rotatable=0;whiteSpace=wrap;html=1;" vertex="1" parent="L32WXC0NY1erCqeWQL-x-57">
          <mxGeometry x="10" y="30" width="80" height="30" as="geometry" />
        </mxCell>
        <mxCell id="L32WXC0NY1erCqeWQL-x-60" value="SQL" style="text;strokeColor=none;fillColor=none;align=left;verticalAlign=middle;spacingLeft=4;spacingRight=4;overflow=hidden;points=[[0,0.5],[1,0.5]];portConstraint=eastwest;rotatable=0;whiteSpace=wrap;html=1;" vertex="1" parent="L32WXC0NY1erCqeWQL-x-57">
          <mxGeometry x="10" y="60" width="80" height="30" as="geometry" />
        </mxCell>
      </root>
    </mxGraphModel>
  </diagram>
</mxfile>
